<?xml version="1.0" encoding="utf-8" standalone="no"?>
<!DOCTYPE svg PUBLIC "-//W3C//DTD SVG 1.1//EN"
  "http://www.w3.org/Graphics/SVG/1.1/DTD/svg11.dtd">
<svg xmlns:xlink="http://www.w3.org/1999/xlink" width="432pt" height="288pt" viewBox="0 0 432 288" xmlns="http://www.w3.org/2000/svg" version="1.1">
 <metadata>
  <rdf:RDF xmlns:dc="http://purl.org/dc/elements/1.1/" xmlns:cc="http://creativecommons.org/ns#" xmlns:rdf="http://www.w3.org/1999/02/22-rdf-syntax-ns#">
   <cc:Work>
    <dc:type rdf:resource="http://purl.org/dc/dcmitype/StillImage"/>
    <dc:date>2026-07-22T13:27:50.217955</dc:date>
    <dc:format>image/svg+xml</dc:format>
    <dc:creator>
     <cc:Agent>
      <dc:title>Matplotlib v3.10.6, https://matplotlib.org/</dc:title>
     </cc:Agent>
    </dc:creator>
   </cc:Work>
  </rdf:RDF>
 </metadata>
 <defs>
  <style type="text/css">*{stroke-linejoin: round; stroke-linecap: butt}</style>
 </defs>
 <g id="figure_1">
  <g id="patch_1">
   <path d="M 0 288 
L 432 288 
L 432 0 
L 0 0 
z
" style="fill: #ffffff"/>
  </g>
  <g id="axes_1">
   <g id="patch_2">
    <path d="M 54 256.32 
L 388.8 256.32 
L 388.8 34.56 
L 54 34.56 
z
" style="fill: #ffffff"/>
   </g>
   <g id="PathCollection_1">
    <defs>
     <path id="mf695d11733" d="M 0 1.581139 
C 0.419323 1.581139 0.821528 1.41454 1.118034 1.118034 
C 1.41454 0.821528 1.581139 0.419323 1.581139 0 
C 1.581139 -0.419323 1.41454 -0.821528 1.118034 -1.118034 
C 0.821528 -1.41454 0.419323 -1.581139 0 -1.581139 
C -0.419323 -1.581139 -0.821528 -1.41454 -1.118034 -1.118034 
C -1.41454 -0.821528 -1.581139 -0.419323 -1.581139 0 
C -1.581139 0.419323 -1.41454 0.821528 -1.118034 1.118034 
C -0.821528 1.41454 -0.419323 1.581139 0 1.581139 
z
" style="stroke: #1f77b4"/>
    </defs>
    <g clip-path="url(#pe05feac025)">
     <use xlink:href="#mf695d11733" x="120.330232" y="215.84405" style="fill: #1f77b4; stroke: #1f77b4"/>
     <use xlink:href="#mf695d11733" x="101.898968" y="211.170212" style="fill: #1f77b4; stroke: #1f77b4"/>
     <use xlink:href="#mf695d11733" x="79.625883" y="235.400879" style="fill: #1f77b4; stroke: #1f77b4"/>
     <use xlink:href="#mf695d11733" x="98.772307" y="202.641861" style="fill: #1f77b4; stroke: #1f77b4"/>
     <use xlink:href="#mf695d11733" x="79.655161" y="237.067648" style="fill: #1f77b4; stroke: #1f77b4"/>
     <use xlink:href="#mf695d11733" x="78.994298" y="222.842222" style="fill: #1f77b4; stroke: #1f77b4"/>
     <use xlink:href="#mf695d11733" x="111.613817" y="208.651613" style="fill: #1f77b4; stroke: #1f77b4"/>
     <use xlink:href="#mf695d11733" x="78.389525" y="229.391578" style="fill: #1f77b4; stroke: #1f77b4"/>
     <use xlink:href="#mf695d11733" x="84.972568" y="227.154636" style="fill: #1f77b4; stroke: #1f77b4"/>
     <use xlink:href="#mf695d11733" x="82.058981" y="227.024621" style="fill: #1f77b4; stroke: #1f77b4"/>
     <use xlink:href="#mf695d11733" x="87.754394" y="233.198262" style="fill: #1f77b4; stroke: #1f77b4"/>
     <use xlink:href="#mf695d11733" x="92.34259" y="232.25221" style="fill: #1f77b4; stroke: #1f77b4"/>
     <use xlink:href="#mf695d11733" x="100.184751" y="217.855728" style="fill: #1f77b4; stroke: #1f77b4"/>
     <use xlink:href="#mf695d11733" x="87.169532" y="235.811081" style="fill: #1f77b4; stroke: #1f77b4"/>
     <use xlink:href="#mf695d11733" x="90.159506" y="235.893982" style="fill: #1f77b4; stroke: #1f77b4"/>
     <use xlink:href="#mf695d11733" x="92.422464" y="235.390706" style="fill: #1f77b4; stroke: #1f77b4"/>
     <use xlink:href="#mf695d11733" x="101.199125" y="232.043639" style="fill: #1f77b4; stroke: #1f77b4"/>
     <use xlink:href="#mf695d11733" x="83.335872" y="230.705975" style="fill: #1f77b4; stroke: #1f77b4"/>
     <use xlink:href="#mf695d11733" x="107.589217" y="227.556247" style="fill: #1f77b4; stroke: #1f77b4"/>
     <use xlink:href="#mf695d11733" x="89.223912" y="231.257412" style="fill: #1f77b4; stroke: #1f77b4"/>
     <use xlink:href="#mf695d11733" x="93.748882" y="229.261418" style="fill: #1f77b4; stroke: #1f77b4"/>
     <use xlink:href="#mf695d11733" x="95.011092" y="226.73776" style="fill: #1f77b4; stroke: #1f77b4"/>
     <use xlink:href="#mf695d11733" x="87.289816" y="225.721724" style="fill: #1f77b4; stroke: #1f77b4"/>
     <use xlink:href="#mf695d11733" x="84.792792" y="229.763613" style="fill: #1f77b4; stroke: #1f77b4"/>
     <use xlink:href="#mf695d11733" x="111.981909" y="193.569095" style="fill: #1f77b4; stroke: #1f77b4"/>
     <use xlink:href="#mf695d11733" x="69.218182" y="200.891508" style="fill: #1f77b4; stroke: #1f77b4"/>
     <use xlink:href="#mf695d11733" x="86.108849" y="228.307645" style="fill: #1f77b4; stroke: #1f77b4"/>
     <use xlink:href="#mf695d11733" x="92.856156" y="230.127609" style="fill: #1f77b4; stroke: #1f77b4"/>
     <use xlink:href="#mf695d11733" x="94.867714" y="223.542447" style="fill: #1f77b4; stroke: #1f77b4"/>
     <use xlink:href="#mf695d11733" x="90.661832" y="230.180738" style="fill: #1f77b4; stroke: #1f77b4"/>
     <use xlink:href="#mf695d11733" x="220.439398" y="139.002857" style="fill: #1f77b4; stroke: #1f77b4"/>
     <use xlink:href="#mf695d11733" x="85.16558" y="237.046442" style="fill: #1f77b4; stroke: #1f77b4"/>
     <use xlink:href="#mf695d11733" x="91.535043" y="222.907807" style="fill: #1f77b4; stroke: #1f77b4"/>
     <use xlink:href="#mf695d11733" x="79.669702" y="234.736208" style="fill: #1f77b4; stroke: #1f77b4"/>
     <use xlink:href="#mf695d11733" x="126.643398" y="169.041243" style="fill: #1f77b4; stroke: #1f77b4"/>
     <use xlink:href="#mf695d11733" x="163.469864" y="171.892232" style="fill: #1f77b4; stroke: #1f77b4"/>
     <use xlink:href="#mf695d11733" x="71.228463" y="240.620002" style="fill: #1f77b4; stroke: #1f77b4"/>
     <use xlink:href="#mf695d11733" x="114.188291" y="207.760431" style="fill: #1f77b4; stroke: #1f77b4"/>
     <use xlink:href="#mf695d11733" x="134.182493" y="198.088423" style="fill: #1f77b4; stroke: #1f77b4"/>
     <use xlink:href="#mf695d11733" x="114.550344" y="217.793085" style="fill: #1f77b4; stroke: #1f77b4"/>
     <use xlink:href="#mf695d11733" x="147.99701" y="194.400232" style="fill: #1f77b4; stroke: #1f77b4"/>
     <use xlink:href="#mf695d11733" x="83.830446" y="232.390832" style="fill: #1f77b4; stroke: #1f77b4"/>
     <use xlink:href="#mf695d11733" x="114.52598" y="199.331079" style="fill: #1f77b4; stroke: #1f77b4"/>
     <use xlink:href="#mf695d11733" x="118.126269" y="218.590491" style="fill: #1f77b4; stroke: #1f77b4"/>
     <use xlink:href="#mf695d11733" x="93.570238" y="232.570162" style="fill: #1f77b4; stroke: #1f77b4"/>
     <use xlink:href="#mf695d11733" x="171.54844" y="154.792137" style="fill: #1f77b4; stroke: #1f77b4"/>
     <use xlink:href="#mf695d11733" x="106.029585" y="205.83908" style="fill: #1f77b4; stroke: #1f77b4"/>
     <use xlink:href="#mf695d11733" x="91.455903" y="234.986766" style="fill: #1f77b4; stroke: #1f77b4"/>
     <use xlink:href="#mf695d11733" x="93.162198" y="229.913246" style="fill: #1f77b4; stroke: #1f77b4"/>
     <use xlink:href="#mf695d11733" x="143.67909" y="192.060853" style="fill: #1f77b4; stroke: #1f77b4"/>
     <use xlink:href="#mf695d11733" x="126.31487" y="193.964072" style="fill: #1f77b4; stroke: #1f77b4"/>
     <use xlink:href="#mf695d11733" x="99.130885" y="231.719173" style="fill: #1f77b4; stroke: #1f77b4"/>
     <use xlink:href="#mf695d11733" x="96.856819" y="197.965324" style="fill: #1f77b4; stroke: #1f77b4"/>
     <use xlink:href="#mf695d11733" x="159.343058" y="192.039685" style="fill: #1f77b4; stroke: #1f77b4"/>
     <use xlink:href="#mf695d11733" x="93.737688" y="235.687321" style="fill: #1f77b4; stroke: #1f77b4"/>
     <use xlink:href="#mf695d11733" x="188.263833" y="164.854309" style="fill: #1f77b4; stroke: #1f77b4"/>
     <use xlink:href="#mf695d11733" x="250.954671" y="119.54572" style="fill: #1f77b4; stroke: #1f77b4"/>
     <use xlink:href="#mf695d11733" x="92.312225" y="200.996765" style="fill: #1f77b4; stroke: #1f77b4"/>
     <use xlink:href="#mf695d11733" x="88.888087" y="228.318983" style="fill: #1f77b4; stroke: #1f77b4"/>
     <use xlink:href="#mf695d11733" x="90.944288" y="233.208871" style="fill: #1f77b4; stroke: #1f77b4"/>
     <use xlink:href="#mf695d11733" x="110.692915" y="214.470216" style="fill: #1f77b4; stroke: #1f77b4"/>
     <use xlink:href="#mf695d11733" x="94.828547" y="228.9129" style="fill: #1f77b4; stroke: #1f77b4"/>
     <use xlink:href="#mf695d11733" x="236.783587" y="126.940845" style="fill: #1f77b4; stroke: #1f77b4"/>
     <use xlink:href="#mf695d11733" x="128.204351" y="185.244356" style="fill: #1f77b4; stroke: #1f77b4"/>
     <use xlink:href="#mf695d11733" x="164.283821" y="154.395124" style="fill: #1f77b4; stroke: #1f77b4"/>
     <use xlink:href="#mf695d11733" x="154.422122" y="163.762316" style="fill: #1f77b4; stroke: #1f77b4"/>
     <use xlink:href="#mf695d11733" x="208.544995" y="134.970386" style="fill: #1f77b4; stroke: #1f77b4"/>
     <use xlink:href="#mf695d11733" x="246.919855" y="111.201165" style="fill: #1f77b4; stroke: #1f77b4"/>
     <use xlink:href="#mf695d11733" x="98.886694" y="218.478744" style="fill: #1f77b4; stroke: #1f77b4"/>
     <use xlink:href="#mf695d11733" x="112.745522" y="201.254184" style="fill: #1f77b4; stroke: #1f77b4"/>
     <use xlink:href="#mf695d11733" x="102.444761" y="231.186621" style="fill: #1f77b4; stroke: #1f77b4"/>
     <use xlink:href="#mf695d11733" x="93.586815" y="233.102777" style="fill: #1f77b4; stroke: #1f77b4"/>
     <use xlink:href="#mf695d11733" x="199.97162" y="129.485634" style="fill: #1f77b4; stroke: #1f77b4"/>
     <use xlink:href="#mf695d11733" x="80.832006" y="216.920593" style="fill: #1f77b4; stroke: #1f77b4"/>
     <use xlink:href="#mf695d11733" x="143.352775" y="175.756882" style="fill: #1f77b4; stroke: #1f77b4"/>
     <use xlink:href="#mf695d11733" x="74.861481" y="217.515212" style="fill: #1f77b4; stroke: #1f77b4"/>
     <use xlink:href="#mf695d11733" x="196.050855" y="146.687238" style="fill: #1f77b4; stroke: #1f77b4"/>
     <use xlink:href="#mf695d11733" x="76.111921" y="234.03138" style="fill: #1f77b4; stroke: #1f77b4"/>
     <use xlink:href="#mf695d11733" x="97.12097" y="234.12296" style="fill: #1f77b4; stroke: #1f77b4"/>
     <use xlink:href="#mf695d11733" x="109.885544" y="218.291952" style="fill: #1f77b4; stroke: #1f77b4"/>
     <use xlink:href="#mf695d11733" x="172.380093" y="183.069997" style="fill: #1f77b4; stroke: #1f77b4"/>
     <use xlink:href="#mf695d11733" x="69.500705" y="236.081408" style="fill: #1f77b4; stroke: #1f77b4"/>
     <use xlink:href="#mf695d11733" x="91.226784" y="225.900846" style="fill: #1f77b4; stroke: #1f77b4"/>
     <use xlink:href="#mf695d11733" x="100.555731" y="208.768877" style="fill: #1f77b4; stroke: #1f77b4"/>
     <use xlink:href="#mf695d11733" x="229.58621" y="131.050071" style="fill: #1f77b4; stroke: #1f77b4"/>
     <use xlink:href="#mf695d11733" x="137.026286" y="192.285102" style="fill: #1f77b4; stroke: #1f77b4"/>
     <use xlink:href="#mf695d11733" x="79.797277" y="220.397209" style="fill: #1f77b4; stroke: #1f77b4"/>
     <use xlink:href="#mf695d11733" x="108.480291" y="205.632049" style="fill: #1f77b4; stroke: #1f77b4"/>
     <use xlink:href="#mf695d11733" x="208.359224" y="128.830533" style="fill: #1f77b4; stroke: #1f77b4"/>
     <use xlink:href="#mf695d11733" x="94.733779" y="220.859127" style="fill: #1f77b4; stroke: #1f77b4"/>
     <use xlink:href="#mf695d11733" x="102.479615" y="225.41197" style="fill: #1f77b4; stroke: #1f77b4"/>
     <use xlink:href="#mf695d11733" x="226.123367" y="138.659869" style="fill: #1f77b4; stroke: #1f77b4"/>
     <use xlink:href="#mf695d11733" x="110.948374" y="201.237065" style="fill: #1f77b4; stroke: #1f77b4"/>
     <use xlink:href="#mf695d11733" x="207.189921" y="138.021958" style="fill: #1f77b4; stroke: #1f77b4"/>
     <use xlink:href="#mf695d11733" x="99.10615" y="227.321935" style="fill: #1f77b4; stroke: #1f77b4"/>
     <use xlink:href="#mf695d11733" x="266.758703" y="114.533619" style="fill: #1f77b4; stroke: #1f77b4"/>
     <use xlink:href="#mf695d11733" x="111.500087" y="207.500815" style="fill: #1f77b4; stroke: #1f77b4"/>
     <use xlink:href="#mf695d11733" x="264.111079" y="107.750547" style="fill: #1f77b4; stroke: #1f77b4"/>
     <use xlink:href="#mf695d11733" x="116.510712" y="182.866701" style="fill: #1f77b4; stroke: #1f77b4"/>
     <use xlink:href="#mf695d11733" x="208.59637" y="136.116933" style="fill: #1f77b4; stroke: #1f77b4"/>
     <use xlink:href="#mf695d11733" x="185.292068" y="123.721248" style="fill: #1f77b4; stroke: #1f77b4"/>
     <use xlink:href="#mf695d11733" x="269.653405" y="97.847703" style="fill: #1f77b4; stroke: #1f77b4"/>
     <use xlink:href="#mf695d11733" x="277.774791" y="96.430427" style="fill: #1f77b4; stroke: #1f77b4"/>
     <use xlink:href="#mf695d11733" x="239.239151" y="120.428405" style="fill: #1f77b4; stroke: #1f77b4"/>
     <use xlink:href="#mf695d11733" x="205.167597" y="137.218895" style="fill: #1f77b4; stroke: #1f77b4"/>
     <use xlink:href="#mf695d11733" x="110.317438" y="225.770094" style="fill: #1f77b4; stroke: #1f77b4"/>
     <use xlink:href="#mf695d11733" x="238.372039" y="125.320721" style="fill: #1f77b4; stroke: #1f77b4"/>
     <use xlink:href="#mf695d11733" x="99.594627" y="229.492955" style="fill: #1f77b4; stroke: #1f77b4"/>
     <use xlink:href="#mf695d11733" x="115.005829" y="203.378839" style="fill: #1f77b4; stroke: #1f77b4"/>
     <use xlink:href="#mf695d11733" x="103.909034" y="226.361898" style="fill: #1f77b4; stroke: #1f77b4"/>
     <use xlink:href="#mf695d11733" x="110.403304" y="221.784276" style="fill: #1f77b4; stroke: #1f77b4"/>
     <use xlink:href="#mf695d11733" x="208.564085" y="133.034941" style="fill: #1f77b4; stroke: #1f77b4"/>
     <use xlink:href="#mf695d11733" x="88.023995" y="221.241698" style="fill: #1f77b4; stroke: #1f77b4"/>
     <use xlink:href="#mf695d11733" x="267.419283" y="110.316393" style="fill: #1f77b4; stroke: #1f77b4"/>
     <use xlink:href="#mf695d11733" x="228.818644" y="128.864505" style="fill: #1f77b4; stroke: #1f77b4"/>
     <use xlink:href="#mf695d11733" x="267.868431" y="109.168261" style="fill: #1f77b4; stroke: #1f77b4"/>
     <use xlink:href="#mf695d11733" x="93.526822" y="234.882581" style="fill: #1f77b4; stroke: #1f77b4"/>
     <use xlink:href="#mf695d11733" x="183.836866" y="162.968293" style="fill: #1f77b4; stroke: #1f77b4"/>
     <use xlink:href="#mf695d11733" x="131.969151" y="202.642126" style="fill: #1f77b4; stroke: #1f77b4"/>
     <use xlink:href="#mf695d11733" x="88.75558" y="217.063093" style="fill: #1f77b4; stroke: #1f77b4"/>
     <use xlink:href="#mf695d11733" x="106.658214" y="183.048083" style="fill: #1f77b4; stroke: #1f77b4"/>
     <use xlink:href="#mf695d11733" x="152.796542" y="185.808369" style="fill: #1f77b4; stroke: #1f77b4"/>
     <use xlink:href="#mf695d11733" x="199.459369" y="164.439023" style="fill: #1f77b4; stroke: #1f77b4"/>
     <use xlink:href="#mf695d11733" x="136.788975" y="157.841391" style="fill: #1f77b4; stroke: #1f77b4"/>
     <use xlink:href="#mf695d11733" x="118.491041" y="202.345277" style="fill: #1f77b4; stroke: #1f77b4"/>
     <use xlink:href="#mf695d11733" x="197.053689" y="160.204885" style="fill: #1f77b4; stroke: #1f77b4"/>
     <use xlink:href="#mf695d11733" x="101.3675" y="217.678769" style="fill: #1f77b4; stroke: #1f77b4"/>
     <use xlink:href="#mf695d11733" x="111.365511" y="180.111659" style="fill: #1f77b4; stroke: #1f77b4"/>
     <use xlink:href="#mf695d11733" x="117.623955" y="204.469107" style="fill: #1f77b4; stroke: #1f77b4"/>
     <use xlink:href="#mf695d11733" x="179.997875" y="164.600334" style="fill: #1f77b4; stroke: #1f77b4"/>
     <use xlink:href="#mf695d11733" x="153.940762" y="164.875479" style="fill: #1f77b4; stroke: #1f77b4"/>
     <use xlink:href="#mf695d11733" x="121.979833" y="196.768824" style="fill: #1f77b4; stroke: #1f77b4"/>
     <use xlink:href="#mf695d11733" x="109.689947" y="222.168482" style="fill: #1f77b4; stroke: #1f77b4"/>
     <use xlink:href="#mf695d11733" x="106.767465" y="218.715082" style="fill: #1f77b4; stroke: #1f77b4"/>
     <use xlink:href="#mf695d11733" x="166.204459" y="161.910547" style="fill: #1f77b4; stroke: #1f77b4"/>
     <use xlink:href="#mf695d11733" x="137.79421" y="196.987877" style="fill: #1f77b4; stroke: #1f77b4"/>
     <use xlink:href="#mf695d11733" x="196.787255" y="151.659614" style="fill: #1f77b4; stroke: #1f77b4"/>
     <use xlink:href="#mf695d11733" x="300.928567" y="89.749664" style="fill: #1f77b4; stroke: #1f77b4"/>
     <use xlink:href="#mf695d11733" x="117.746963" y="214.809189" style="fill: #1f77b4; stroke: #1f77b4"/>
     <use xlink:href="#mf695d11733" x="257.366734" y="124.597832" style="fill: #1f77b4; stroke: #1f77b4"/>
     <use xlink:href="#mf695d11733" x="107.200776" y="177.755245" style="fill: #1f77b4; stroke: #1f77b4"/>
     <use xlink:href="#mf695d11733" x="102.177643" y="217.076456" style="fill: #1f77b4; stroke: #1f77b4"/>
     <use xlink:href="#mf695d11733" x="254.89761" y="118.446866" style="fill: #1f77b4; stroke: #1f77b4"/>
     <use xlink:href="#mf695d11733" x="98.658492" y="229.266556" style="fill: #1f77b4; stroke: #1f77b4"/>
     <use xlink:href="#mf695d11733" x="141.425431" y="177.641565" style="fill: #1f77b4; stroke: #1f77b4"/>
     <use xlink:href="#mf695d11733" x="106.020419" y="215.226838" style="fill: #1f77b4; stroke: #1f77b4"/>
     <use xlink:href="#mf695d11733" x="102.892786" y="230.761108" style="fill: #1f77b4; stroke: #1f77b4"/>
     <use xlink:href="#mf695d11733" x="185.892097" y="146.743506" style="fill: #1f77b4; stroke: #1f77b4"/>
     <use xlink:href="#mf695d11733" x="134.379257" y="172.878268" style="fill: #1f77b4; stroke: #1f77b4"/>
     <use xlink:href="#mf695d11733" x="76.108318" y="217.81304" style="fill: #1f77b4; stroke: #1f77b4"/>
     <use xlink:href="#mf695d11733" x="120.818389" y="186.868973" style="fill: #1f77b4; stroke: #1f77b4"/>
     <use xlink:href="#mf695d11733" x="78.772166" y="217.515118" style="fill: #1f77b4; stroke: #1f77b4"/>
     <use xlink:href="#mf695d11733" x="107.903943" y="205.617113" style="fill: #1f77b4; stroke: #1f77b4"/>
     <use xlink:href="#mf695d11733" x="110.396065" y="222.21688" style="fill: #1f77b4; stroke: #1f77b4"/>
     <use xlink:href="#mf695d11733" x="94.063627" y="230.692154" style="fill: #1f77b4; stroke: #1f77b4"/>
     <use xlink:href="#mf695d11733" x="136.801034" y="162.631311" style="fill: #1f77b4; stroke: #1f77b4"/>
     <use xlink:href="#mf695d11733" x="270.565659" y="109.410799" style="fill: #1f77b4; stroke: #1f77b4"/>
     <use xlink:href="#mf695d11733" x="191.373266" y="146.256807" style="fill: #1f77b4; stroke: #1f77b4"/>
     <use xlink:href="#mf695d11733" x="190.842577" y="144.650173" style="fill: #1f77b4; stroke: #1f77b4"/>
     <use xlink:href="#mf695d11733" x="192.951348" y="138.369326" style="fill: #1f77b4; stroke: #1f77b4"/>
     <use xlink:href="#mf695d11733" x="125.696471" y="198.453425" style="fill: #1f77b4; stroke: #1f77b4"/>
     <use xlink:href="#mf695d11733" x="136.295952" y="183.419695" style="fill: #1f77b4; stroke: #1f77b4"/>
     <use xlink:href="#mf695d11733" x="179.11412" y="174.515109" style="fill: #1f77b4; stroke: #1f77b4"/>
     <use xlink:href="#mf695d11733" x="105.271711" y="228.88308" style="fill: #1f77b4; stroke: #1f77b4"/>
     <use xlink:href="#mf695d11733" x="198.704228" y="160.56234" style="fill: #1f77b4; stroke: #1f77b4"/>
     <use xlink:href="#mf695d11733" x="285.842504" y="81.754362" style="fill: #1f77b4; stroke: #1f77b4"/>
     <use xlink:href="#mf695d11733" x="82.381648" y="223.036331" style="fill: #1f77b4; stroke: #1f77b4"/>
     <use xlink:href="#mf695d11733" x="78.343224" y="232.116801" style="fill: #1f77b4; stroke: #1f77b4"/>
     <use xlink:href="#mf695d11733" x="99.77417" y="228.568368" style="fill: #1f77b4; stroke: #1f77b4"/>
     <use xlink:href="#mf695d11733" x="99.850511" y="207.449329" style="fill: #1f77b4; stroke: #1f77b4"/>
     <use xlink:href="#mf695d11733" x="143.610407" y="202.864" style="fill: #1f77b4; stroke: #1f77b4"/>
     <use xlink:href="#mf695d11733" x="124.37347" y="178.544184" style="fill: #1f77b4; stroke: #1f77b4"/>
     <use xlink:href="#mf695d11733" x="86.732198" y="215.048429" style="fill: #1f77b4; stroke: #1f77b4"/>
     <use xlink:href="#mf695d11733" x="137.401099" y="135.661988" style="fill: #1f77b4; stroke: #1f77b4"/>
     <use xlink:href="#mf695d11733" x="296.732897" y="93.064346" style="fill: #1f77b4; stroke: #1f77b4"/>
     <use xlink:href="#mf695d11733" x="96.662789" y="191.881587" style="fill: #1f77b4; stroke: #1f77b4"/>
     <use xlink:href="#mf695d11733" x="237.635019" y="124.102338" style="fill: #1f77b4; stroke: #1f77b4"/>
     <use xlink:href="#mf695d11733" x="88.402334" y="214.701691" style="fill: #1f77b4; stroke: #1f77b4"/>
     <use xlink:href="#mf695d11733" x="284.267591" y="96.291189" style="fill: #1f77b4; stroke: #1f77b4"/>
     <use xlink:href="#mf695d11733" x="136.21561" y="171.146697" style="fill: #1f77b4; stroke: #1f77b4"/>
     <use xlink:href="#mf695d11733" x="113.125827" y="207.974517" style="fill: #1f77b4; stroke: #1f77b4"/>
     <use xlink:href="#mf695d11733" x="201.18329" y="155.248686" style="fill: #1f77b4; stroke: #1f77b4"/>
     <use xlink:href="#mf695d11733" x="147.34209" y="169.838768" style="fill: #1f77b4; stroke: #1f77b4"/>
    </g>
   </g>
   <g id="matplotlib.axis_1">
    <g id="xtick_1">
     <g id="line2d_1">
      <path d="M 72.426011 256.32 
L 72.426011 34.56 
" clip-path="url(#pe05feac025)" style="fill: none; stroke: #b0b0b0; stroke-opacity: 0.3; stroke-width: 0.8; stroke-linecap: square"/>
     </g>
     <g id="line2d_2">
      <defs>
       <path id="mbe0137d1c1" d="M 0 0 
L 0 3.5 
" style="stroke: #000000; stroke-width: 0.8"/>
      </defs>
      <g>
       <use xlink:href="#mbe0137d1c1" x="72.426011" y="256.32" style="stroke: #000000; stroke-width: 0.8"/>
      </g>
     </g>
     <g id="text_1">
      <!-- −0.25 -->
      <g transform="translate(57.103355 270.918437) scale(0.1 -0.1)">
       <defs>
        <path id="DejaVuSans-2212" d="M 678 2272 
L 4684 2272 
L 4684 1741 
L 678 1741 
L 678 2272 
z
" transform="scale(0.015625)"/>
        <path id="DejaVuSans-30" d="M 2034 4250 
Q 1547 4250 1301 3770 
Q 1056 3291 1056 2328 
Q 1056 1369 1301 889 
Q 1547 409 2034 409 
Q 2525 409 2770 889 
Q 3016 1369 3016 2328 
Q 3016 3291 2770 3770 
Q 2525 4250 2034 4250 
z
M 2034 4750 
Q 2819 4750 3233 4129 
Q 3647 3509 3647 2328 
Q 3647 1150 3233 529 
Q 2819 -91 2034 -91 
Q 1250 -91 836 529 
Q 422 1150 422 2328 
Q 422 3509 836 4129 
Q 1250 4750 2034 4750 
z
" transform="scale(0.015625)"/>
        <path id="DejaVuSans-2e" d="M 684 794 
L 1344 794 
L 1344 0 
L 684 0 
L 684 794 
z
" transform="scale(0.015625)"/>
        <path id="DejaVuSans-32" d="M 1228 531 
L 3431 531 
L 3431 0 
L 469 0 
L 469 531 
Q 828 903 1448 1529 
Q 2069 2156 2228 2338 
Q 2531 2678 2651 2914 
Q 2772 3150 2772 3378 
Q 2772 3750 2511 3984 
Q 2250 4219 1831 4219 
Q 1534 4219 1204 4116 
Q 875 4013 500 3803 
L 500 4441 
Q 881 4594 1212 4672 
Q 1544 4750 1819 4750 
Q 2544 4750 2975 4387 
Q 3406 4025 3406 3419 
Q 3406 3131 3298 2873 
Q 3191 2616 2906 2266 
Q 2828 2175 2409 1742 
Q 1991 1309 1228 531 
z
" transform="scale(0.015625)"/>
        <path id="DejaVuSans-35" d="M 691 4666 
L 3169 4666 
L 3169 4134 
L 1269 4134 
L 1269 2991 
Q 1406 3038 1543 3061 
Q 1681 3084 1819 3084 
Q 2600 3084 3056 2656 
Q 3513 2228 3513 1497 
Q 3513 744 3044 326 
Q 2575 -91 1722 -91 
Q 1428 -91 1123 -41 
Q 819 9 494 109 
L 494 744 
Q 775 591 1075 516 
Q 1375 441 1709 441 
Q 2250 441 2565 725 
Q 2881 1009 2881 1497 
Q 2881 1984 2565 2268 
Q 2250 2553 1709 2553 
Q 1456 2553 1204 2497 
Q 953 2441 691 2322 
L 691 4666 
z
" transform="scale(0.015625)"/>
       </defs>
       <use xlink:href="#DejaVuSans-2212"/>
       <use xlink:href="#DejaVuSans-30" transform="translate(83.789062 0)"/>
       <use xlink:href="#DejaVuSans-2e" transform="translate(147.412109 0)"/>
       <use xlink:href="#DejaVuSans-32" transform="translate(179.199219 0)"/>
       <use xlink:href="#DejaVuSans-35" transform="translate(242.822266 0)"/>
      </g>
     </g>
    </g>
    <g id="xtick_2">
     <g id="line2d_3">
      <path d="M 113.122742 256.32 
L 113.122742 34.56 
" clip-path="url(#pe05feac025)" style="fill: none; stroke: #b0b0b0; stroke-opacity: 0.3; stroke-width: 0.8; stroke-linecap: square"/>
     </g>
     <g id="line2d_4">
      <g>
       <use xlink:href="#mbe0137d1c1" x="113.122742" y="256.32" style="stroke: #000000; stroke-width: 0.8"/>
      </g>
     </g>
     <g id="text_2">
      <!-- 0.00 -->
      <g transform="translate(101.989929 270.918437) scale(0.1 -0.1)">
       <use xlink:href="#DejaVuSans-30"/>
       <use xlink:href="#DejaVuSans-2e" transform="translate(63.623047 0)"/>
       <use xlink:href="#DejaVuSans-30" transform="translate(95.410156 0)"/>
       <use xlink:href="#DejaVuSans-30" transform="translate(159.033203 0)"/>
      </g>
     </g>
    </g>
    <g id="xtick_3">
     <g id="line2d_5">
      <path d="M 153.819473 256.32 
L 153.819473 34.56 
" clip-path="url(#pe05feac025)" style="fill: none; stroke: #b0b0b0; stroke-opacity: 0.3; stroke-width: 0.8; stroke-linecap: square"/>
     </g>
     <g id="line2d_6">
      <g>
       <use xlink:href="#mbe0137d1c1" x="153.819473" y="256.32" style="stroke: #000000; stroke-width: 0.8"/>
      </g>
     </g>
     <g id="text_3">
      <!-- 0.25 -->
      <g transform="translate(142.68666 270.918437) scale(0.1 -0.1)">
       <use xlink:href="#DejaVuSans-30"/>
       <use xlink:href="#DejaVuSans-2e" transform="translate(63.623047 0)"/>
       <use xlink:href="#DejaVuSans-32" transform="translate(95.410156 0)"/>
       <use xlink:href="#DejaVuSans-35" transform="translate(159.033203 0)"/>
      </g>
     </g>
    </g>
    <g id="xtick_4">
     <g id="line2d_7">
      <path d="M 194.516203 256.32 
L 194.516203 34.56 
" clip-path="url(#pe05feac025)" style="fill: none; stroke: #b0b0b0; stroke-opacity: 0.3; stroke-width: 0.8; stroke-linecap: square"/>
     </g>
     <g id="line2d_8">
      <g>
       <use xlink:href="#mbe0137d1c1" x="194.516203" y="256.32" style="stroke: #000000; stroke-width: 0.8"/>
      </g>
     </g>
     <g id="text_4">
      <!-- 0.50 -->
      <g transform="translate(183.383391 270.918437) scale(0.1 -0.1)">
       <use xlink:href="#DejaVuSans-30"/>
       <use xlink:href="#DejaVuSans-2e" transform="translate(63.623047 0)"/>
       <use xlink:href="#DejaVuSans-35" transform="translate(95.410156 0)"/>
       <use xlink:href="#DejaVuSans-30" transform="translate(159.033203 0)"/>
      </g>
     </g>
    </g>
    <g id="xtick_5">
     <g id="line2d_9">
      <path d="M 235.212934 256.32 
L 235.212934 34.56 
" clip-path="url(#pe05feac025)" style="fill: none; stroke: #b0b0b0; stroke-opacity: 0.3; stroke-width: 0.8; stroke-linecap: square"/>
     </g>
     <g id="line2d_10">
      <g>
       <use xlink:href="#mbe0137d1c1" x="235.212934" y="256.32" style="stroke: #000000; stroke-width: 0.8"/>
      </g>
     </g>
     <g id="text_5">
      <!-- 0.75 -->
      <g transform="translate(224.080121 270.918437) scale(0.1 -0.1)">
       <defs>
        <path id="DejaVuSans-37" d="M 525 4666 
L 3525 4666 
L 3525 4397 
L 1831 0 
L 1172 0 
L 2766 4134 
L 525 4134 
L 525 4666 
z
" transform="scale(0.015625)"/>
       </defs>
       <use xlink:href="#DejaVuSans-30"/>
       <use xlink:href="#DejaVuSans-2e" transform="translate(63.623047 0)"/>
       <use xlink:href="#DejaVuSans-37" transform="translate(95.410156 0)"/>
       <use xlink:href="#DejaVuSans-35" transform="translate(159.033203 0)"/>
      </g>
     </g>
    </g>
    <g id="xtick_6">
     <g id="line2d_11">
      <path d="M 275.909665 256.32 
L 275.909665 34.56 
" clip-path="url(#pe05feac025)" style="fill: none; stroke: #b0b0b0; stroke-opacity: 0.3; stroke-width: 0.8; stroke-linecap: square"/>
     </g>
     <g id="line2d_12">
      <g>
       <use xlink:href="#mbe0137d1c1" x="275.909665" y="256.32" style="stroke: #000000; stroke-width: 0.8"/>
      </g>
     </g>
     <g id="text_6">
      <!-- 1.00 -->
      <g transform="translate(264.776852 270.918437) scale(0.1 -0.1)">
       <defs>
        <path id="DejaVuSans-31" d="M 794 531 
L 1825 531 
L 1825 4091 
L 703 3866 
L 703 4441 
L 1819 4666 
L 2450 4666 
L 2450 531 
L 3481 531 
L 3481 0 
L 794 0 
L 794 531 
z
" transform="scale(0.015625)"/>
       </defs>
       <use xlink:href="#DejaVuSans-31"/>
       <use xlink:href="#DejaVuSans-2e" transform="translate(63.623047 0)"/>
       <use xlink:href="#DejaVuSans-30" transform="translate(95.410156 0)"/>
       <use xlink:href="#DejaVuSans-30" transform="translate(159.033203 0)"/>
      </g>
     </g>
    </g>
    <g id="xtick_7">
     <g id="line2d_13">
      <path d="M 316.606395 256.32 
L 316.606395 34.56 
" clip-path="url(#pe05feac025)" style="fill: none; stroke: #b0b0b0; stroke-opacity: 0.3; stroke-width: 0.8; stroke-linecap: square"/>
     </g>
     <g id="line2d_14">
      <g>
       <use xlink:href="#mbe0137d1c1" x="316.606395" y="256.32" style="stroke: #000000; stroke-width: 0.8"/>
      </g>
     </g>
     <g id="text_7">
      <!-- 1.25 -->
      <g transform="translate(305.473583 270.918437) scale(0.1 -0.1)">
       <use xlink:href="#DejaVuSans-31"/>
       <use xlink:href="#DejaVuSans-2e" transform="translate(63.623047 0)"/>
       <use xlink:href="#DejaVuSans-32" transform="translate(95.410156 0)"/>
       <use xlink:href="#DejaVuSans-35" transform="translate(159.033203 0)"/>
      </g>
     </g>
    </g>
    <g id="xtick_8">
     <g id="line2d_15">
      <path d="M 357.303126 256.32 
L 357.303126 34.56 
" clip-path="url(#pe05feac025)" style="fill: none; stroke: #b0b0b0; stroke-opacity: 0.3; stroke-width: 0.8; stroke-linecap: square"/>
     </g>
     <g id="line2d_16">
      <g>
       <use xlink:href="#mbe0137d1c1" x="357.303126" y="256.32" style="stroke: #000000; stroke-width: 0.8"/>
      </g>
     </g>
     <g id="text_8">
      <!-- 1.50 -->
      <g transform="translate(346.170313 270.918437) scale(0.1 -0.1)">
       <use xlink:href="#DejaVuSans-31"/>
       <use xlink:href="#DejaVuSans-2e" transform="translate(63.623047 0)"/>
       <use xlink:href="#DejaVuSans-35" transform="translate(95.410156 0)"/>
       <use xlink:href="#DejaVuSans-30" transform="translate(159.033203 0)"/>
      </g>
     </g>
    </g>
    <g id="text_9">
     <!-- GS at D = 0 -->
     <g transform="translate(191.75 284.596563) scale(0.1 -0.1)">
      <defs>
       <path id="DejaVuSans-47" d="M 3809 666 
L 3809 1919 
L 2778 1919 
L 2778 2438 
L 4434 2438 
L 4434 434 
Q 4069 175 3628 42 
Q 3188 -91 2688 -91 
Q 1594 -91 976 548 
Q 359 1188 359 2328 
Q 359 3472 976 4111 
Q 1594 4750 2688 4750 
Q 3144 4750 3555 4637 
Q 3966 4525 4313 4306 
L 4313 3634 
Q 3963 3931 3569 4081 
Q 3175 4231 2741 4231 
Q 1884 4231 1454 3753 
Q 1025 3275 1025 2328 
Q 1025 1384 1454 906 
Q 1884 428 2741 428 
Q 3075 428 3337 486 
Q 3600 544 3809 666 
z
" transform="scale(0.015625)"/>
       <path id="DejaVuSans-53" d="M 3425 4513 
L 3425 3897 
Q 3066 4069 2747 4153 
Q 2428 4238 2131 4238 
Q 1616 4238 1336 4038 
Q 1056 3838 1056 3469 
Q 1056 3159 1242 3001 
Q 1428 2844 1947 2747 
L 2328 2669 
Q 3034 2534 3370 2195 
Q 3706 1856 3706 1288 
Q 3706 609 3251 259 
Q 2797 -91 1919 -91 
Q 1588 -91 1214 -16 
Q 841 59 441 206 
L 441 856 
Q 825 641 1194 531 
Q 1563 422 1919 422 
Q 2459 422 2753 634 
Q 3047 847 3047 1241 
Q 3047 1584 2836 1778 
Q 2625 1972 2144 2069 
L 1759 2144 
Q 1053 2284 737 2584 
Q 422 2884 422 3419 
Q 422 4038 858 4394 
Q 1294 4750 2059 4750 
Q 2388 4750 2728 4690 
Q 3069 4631 3425 4513 
z
" transform="scale(0.015625)"/>
       <path id="DejaVuSans-20" transform="scale(0.015625)"/>
       <path id="DejaVuSans-61" d="M 2194 1759 
Q 1497 1759 1228 1600 
Q 959 1441 959 1056 
Q 959 750 1161 570 
Q 1363 391 1709 391 
Q 2188 391 2477 730 
Q 2766 1069 2766 1631 
L 2766 1759 
L 2194 1759 
z
M 3341 1997 
L 3341 0 
L 2766 0 
L 2766 531 
Q 2569 213 2275 61 
Q 1981 -91 1556 -91 
Q 1019 -91 701 211 
Q 384 513 384 1019 
Q 384 1609 779 1909 
Q 1175 2209 1959 2209 
L 2766 2209 
L 2766 2266 
Q 2766 2663 2505 2880 
Q 2244 3097 1772 3097 
Q 1472 3097 1187 3025 
Q 903 2953 641 2809 
L 641 3341 
Q 956 3463 1253 3523 
Q 1550 3584 1831 3584 
Q 2591 3584 2966 3190 
Q 3341 2797 3341 1997 
z
" transform="scale(0.015625)"/>
       <path id="DejaVuSans-74" d="M 1172 4494 
L 1172 3500 
L 2356 3500 
L 2356 3053 
L 1172 3053 
L 1172 1153 
Q 1172 725 1289 603 
Q 1406 481 1766 481 
L 2356 481 
L 2356 0 
L 1766 0 
Q 1100 0 847 248 
Q 594 497 594 1153 
L 594 3053 
L 172 3053 
L 172 3500 
L 594 3500 
L 594 4494 
L 1172 4494 
z
" transform="scale(0.015625)"/>
       <path id="DejaVuSans-44" d="M 1259 4147 
L 1259 519 
L 2022 519 
Q 2988 519 3436 956 
Q 3884 1394 3884 2338 
Q 3884 3275 3436 3711 
Q 2988 4147 2022 4147 
L 1259 4147 
z
M 628 4666 
L 1925 4666 
Q 3281 4666 3915 4102 
Q 4550 3538 4550 2338 
Q 4550 1131 3912 565 
Q 3275 0 1925 0 
L 628 0 
L 628 4666 
z
" transform="scale(0.015625)"/>
       <path id="DejaVuSans-3d" d="M 678 2906 
L 4684 2906 
L 4684 2381 
L 678 2381 
L 678 2906 
z
M 678 1631 
L 4684 1631 
L 4684 1100 
L 678 1100 
L 678 1631 
z
" transform="scale(0.015625)"/>
      </defs>
      <use xlink:href="#DejaVuSans-47"/>
      <use xlink:href="#DejaVuSans-53" transform="translate(77.490234 0)"/>
      <use xlink:href="#DejaVuSans-20" transform="translate(140.966797 0)"/>
      <use xlink:href="#DejaVuSans-61" transform="translate(172.753906 0)"/>
      <use xlink:href="#DejaVuSans-74" transform="translate(234.033203 0)"/>
      <use xlink:href="#DejaVuSans-20" transform="translate(273.242188 0)"/>
      <use xlink:href="#DejaVuSans-44" transform="translate(305.029297 0)"/>
      <use xlink:href="#DejaVuSans-20" transform="translate(382.03125 0)"/>
      <use xlink:href="#DejaVuSans-3d" transform="translate(413.818359 0)"/>
      <use xlink:href="#DejaVuSans-20" transform="translate(497.607422 0)"/>
      <use xlink:href="#DejaVuSans-30" transform="translate(529.394531 0)"/>
     </g>
    </g>
   </g>
   <g id="matplotlib.axis_2">
    <g id="ytick_1">
     <g id="line2d_17">
      <path d="M 54 251.84 
L 388.8 251.84 
" clip-path="url(#pe05feac025)" style="fill: none; stroke: #b0b0b0; stroke-opacity: 0.3; stroke-width: 0.8; stroke-linecap: square"/>
     </g>
     <g id="line2d_18">
      <defs>
       <path id="md42c262dc5" d="M 0 0 
L -3.5 0 
" style="stroke: #000000; stroke-width: 0.8"/>
      </defs>
      <g>
       <use xlink:href="#md42c262dc5" x="54" y="251.84" style="stroke: #000000; stroke-width: 0.8"/>
      </g>
     </g>
     <g id="text_10">
      <!-- −0.25 -->
      <g transform="translate(16.354687 255.639219) scale(0.1 -0.1)">
       <use xlink:href="#DejaVuSans-2212"/>
       <use xlink:href="#DejaVuSans-30" transform="translate(83.789062 0)"/>
       <use xlink:href="#DejaVuSans-2e" transform="translate(147.412109 0)"/>
       <use xlink:href="#DejaVuSans-32" transform="translate(179.199219 0)"/>
       <use xlink:href="#DejaVuSans-35" transform="translate(242.822266 0)"/>
      </g>
     </g>
    </g>
    <g id="ytick_2">
     <g id="line2d_19">
      <path d="M 54 223.84 
L 388.8 223.84 
" clip-path="url(#pe05feac025)" style="fill: none; stroke: #b0b0b0; stroke-opacity: 0.3; stroke-width: 0.8; stroke-linecap: square"/>
     </g>
     <g id="line2d_20">
      <g>
       <use xlink:href="#md42c262dc5" x="54" y="223.84" style="stroke: #000000; stroke-width: 0.8"/>
      </g>
     </g>
     <g id="text_11">
      <!-- 0.00 -->
      <g transform="translate(24.734375 227.639219) scale(0.1 -0.1)">
       <use xlink:href="#DejaVuSans-30"/>
       <use xlink:href="#DejaVuSans-2e" transform="translate(63.623047 0)"/>
       <use xlink:href="#DejaVuSans-30" transform="translate(95.410156 0)"/>
       <use xlink:href="#DejaVuSans-30" transform="translate(159.033203 0)"/>
      </g>
     </g>
    </g>
    <g id="ytick_3">
     <g id="line2d_21">
      <path d="M 54 195.84 
L 388.8 195.84 
" clip-path="url(#pe05feac025)" style="fill: none; stroke: #b0b0b0; stroke-opacity: 0.3; stroke-width: 0.8; stroke-linecap: square"/>
     </g>
     <g id="line2d_22">
      <g>
       <use xlink:href="#md42c262dc5" x="54" y="195.84" style="stroke: #000000; stroke-width: 0.8"/>
      </g>
     </g>
     <g id="text_12">
      <!-- 0.25 -->
      <g transform="translate(24.734375 199.639219) scale(0.1 -0.1)">
       <use xlink:href="#DejaVuSans-30"/>
       <use xlink:href="#DejaVuSans-2e" transform="translate(63.623047 0)"/>
       <use xlink:href="#DejaVuSans-32" transform="translate(95.410156 0)"/>
       <use xlink:href="#DejaVuSans-35" transform="translate(159.033203 0)"/>
      </g>
     </g>
    </g>
    <g id="ytick_4">
     <g id="line2d_23">
      <path d="M 54 167.84 
L 388.8 167.84 
" clip-path="url(#pe05feac025)" style="fill: none; stroke: #b0b0b0; stroke-opacity: 0.3; stroke-width: 0.8; stroke-linecap: square"/>
     </g>
     <g id="line2d_24">
      <g>
       <use xlink:href="#md42c262dc5" x="54" y="167.84" style="stroke: #000000; stroke-width: 0.8"/>
      </g>
     </g>
     <g id="text_13">
      <!-- 0.50 -->
      <g transform="translate(24.734375 171.639219) scale(0.1 -0.1)">
       <use xlink:href="#DejaVuSans-30"/>
       <use xlink:href="#DejaVuSans-2e" transform="translate(63.623047 0)"/>
       <use xlink:href="#DejaVuSans-35" transform="translate(95.410156 0)"/>
       <use xlink:href="#DejaVuSans-30" transform="translate(159.033203 0)"/>
      </g>
     </g>
    </g>
    <g id="ytick_5">
     <g id="line2d_25">
      <path d="M 54 139.84 
L 388.8 139.84 
" clip-path="url(#pe05feac025)" style="fill: none; stroke: #b0b0b0; stroke-opacity: 0.3; stroke-width: 0.8; stroke-linecap: square"/>
     </g>
     <g id="line2d_26">
      <g>
       <use xlink:href="#md42c262dc5" x="54" y="139.84" style="stroke: #000000; stroke-width: 0.8"/>
      </g>
     </g>
     <g id="text_14">
      <!-- 0.75 -->
      <g transform="translate(24.734375 143.639219) scale(0.1 -0.1)">
       <use xlink:href="#DejaVuSans-30"/>
       <use xlink:href="#DejaVuSans-2e" transform="translate(63.623047 0)"/>
       <use xlink:href="#DejaVuSans-37" transform="translate(95.410156 0)"/>
       <use xlink:href="#DejaVuSans-35" transform="translate(159.033203 0)"/>
      </g>
     </g>
    </g>
    <g id="ytick_6">
     <g id="line2d_27">
      <path d="M 54 111.84 
L 388.8 111.84 
" clip-path="url(#pe05feac025)" style="fill: none; stroke: #b0b0b0; stroke-opacity: 0.3; stroke-width: 0.8; stroke-linecap: square"/>
     </g>
     <g id="line2d_28">
      <g>
       <use xlink:href="#md42c262dc5" x="54" y="111.84" style="stroke: #000000; stroke-width: 0.8"/>
      </g>
     </g>
     <g id="text_15">
      <!-- 1.00 -->
      <g transform="translate(24.734375 115.639219) scale(0.1 -0.1)">
       <use xlink:href="#DejaVuSans-31"/>
       <use xlink:href="#DejaVuSans-2e" transform="translate(63.623047 0)"/>
       <use xlink:href="#DejaVuSans-30" transform="translate(95.410156 0)"/>
       <use xlink:href="#DejaVuSans-30" transform="translate(159.033203 0)"/>
      </g>
     </g>
    </g>
    <g id="ytick_7">
     <g id="line2d_29">
      <path d="M 54 83.84 
L 388.8 83.84 
" clip-path="url(#pe05feac025)" style="fill: none; stroke: #b0b0b0; stroke-opacity: 0.3; stroke-width: 0.8; stroke-linecap: square"/>
     </g>
     <g id="line2d_30">
      <g>
       <use xlink:href="#md42c262dc5" x="54" y="83.84" style="stroke: #000000; stroke-width: 0.8"/>
      </g>
     </g>
     <g id="text_16">
      <!-- 1.25 -->
      <g transform="translate(24.734375 87.639219) scale(0.1 -0.1)">
       <use xlink:href="#DejaVuSans-31"/>
       <use xlink:href="#DejaVuSans-2e" transform="translate(63.623047 0)"/>
       <use xlink:href="#DejaVuSans-32" transform="translate(95.410156 0)"/>
       <use xlink:href="#DejaVuSans-35" transform="translate(159.033203 0)"/>
      </g>
     </g>
    </g>
    <g id="ytick_8">
     <g id="line2d_31">
      <path d="M 54 55.84 
L 388.8 55.84 
" clip-path="url(#pe05feac025)" style="fill: none; stroke: #b0b0b0; stroke-opacity: 0.3; stroke-width: 0.8; stroke-linecap: square"/>
     </g>
     <g id="line2d_32">
      <g>
       <use xlink:href="#md42c262dc5" x="54" y="55.84" style="stroke: #000000; stroke-width: 0.8"/>
      </g>
     </g>
     <g id="text_17">
      <!-- 1.50 -->
      <g transform="translate(24.734375 59.639219) scale(0.1 -0.1)">
       <use xlink:href="#DejaVuSans-31"/>
       <use xlink:href="#DejaVuSans-2e" transform="translate(63.623047 0)"/>
       <use xlink:href="#DejaVuSans-35" transform="translate(95.410156 0)"/>
       <use xlink:href="#DejaVuSans-30" transform="translate(159.033203 0)"/>
      </g>
     </g>
    </g>
    <g id="text_18">
     <!-- GS at D = max -->
     <g transform="translate(10.275 182.8025) rotate(-90) scale(0.1 -0.1)">
      <defs>
       <path id="DejaVuSans-6d" d="M 3328 2828 
Q 3544 3216 3844 3400 
Q 4144 3584 4550 3584 
Q 5097 3584 5394 3201 
Q 5691 2819 5691 2113 
L 5691 0 
L 5113 0 
L 5113 2094 
Q 5113 2597 4934 2840 
Q 4756 3084 4391 3084 
Q 3944 3084 3684 2787 
Q 3425 2491 3425 1978 
L 3425 0 
L 2847 0 
L 2847 2094 
Q 2847 2600 2669 2842 
Q 2491 3084 2119 3084 
Q 1678 3084 1418 2786 
Q 1159 2488 1159 1978 
L 1159 0 
L 581 0 
L 581 3500 
L 1159 3500 
L 1159 2956 
Q 1356 3278 1631 3431 
Q 1906 3584 2284 3584 
Q 2666 3584 2933 3390 
Q 3200 3197 3328 2828 
z
" transform="scale(0.015625)"/>
       <path id="DejaVuSans-78" d="M 3513 3500 
L 2247 1797 
L 3578 0 
L 2900 0 
L 1881 1375 
L 863 0 
L 184 0 
L 1544 1831 
L 300 3500 
L 978 3500 
L 1906 2253 
L 2834 3500 
L 3513 3500 
z
" transform="scale(0.015625)"/>
      </defs>
      <use xlink:href="#DejaVuSans-47"/>
      <use xlink:href="#DejaVuSans-53" transform="translate(77.490234 0)"/>
      <use xlink:href="#DejaVuSans-20" transform="translate(140.966797 0)"/>
      <use xlink:href="#DejaVuSans-61" transform="translate(172.753906 0)"/>
      <use xlink:href="#DejaVuSans-74" transform="translate(234.033203 0)"/>
      <use xlink:href="#DejaVuSans-20" transform="translate(273.242188 0)"/>
      <use xlink:href="#DejaVuSans-44" transform="translate(305.029297 0)"/>
      <use xlink:href="#DejaVuSans-20" transform="translate(382.03125 0)"/>
      <use xlink:href="#DejaVuSans-3d" transform="translate(413.818359 0)"/>
      <use xlink:href="#DejaVuSans-20" transform="translate(497.607422 0)"/>
      <use xlink:href="#DejaVuSans-6d" transform="translate(529.394531 0)"/>
      <use xlink:href="#DejaVuSans-61" transform="translate(626.806641 0)"/>
      <use xlink:href="#DejaVuSans-78" transform="translate(688.085938 0)"/>
     </g>
    </g>
   </g>
   <g id="line2d_33">
    <path d="M 80.565357 246.24 
L 373.581818 44.64 
" clip-path="url(#pe05feac025)" style="fill: none; stroke: #000000; stroke-width: 1.5; stroke-linecap: square"/>
   </g>
   <g id="patch_3">
    <path d="M 54 256.32 
L 54 34.56 
" style="fill: none; stroke: #000000; stroke-width: 0.8; stroke-linejoin: miter; stroke-linecap: square"/>
   </g>
   <g id="patch_4">
    <path d="M 388.8 256.32 
L 388.8 34.56 
" style="fill: none; stroke: #000000; stroke-width: 0.8; stroke-linejoin: miter; stroke-linecap: square"/>
   </g>
   <g id="patch_5">
    <path d="M 54 256.32 
L 388.8 256.32 
" style="fill: none; stroke: #000000; stroke-width: 0.8; stroke-linejoin: miter; stroke-linecap: square"/>
   </g>
   <g id="patch_6">
    <path d="M 54 34.56 
L 388.8 34.56 
" style="fill: none; stroke: #000000; stroke-width: 0.8; stroke-linejoin: miter; stroke-linecap: square"/>
   </g>
   <g id="text_19">
    <!-- All cells: GS(D=0) vs GS(max) -->
    <g transform="translate(131.368125 28.56) scale(0.12 -0.12)">
     <defs>
      <path id="DejaVuSans-41" d="M 2188 4044 
L 1331 1722 
L 3047 1722 
L 2188 4044 
z
M 1831 4666 
L 2547 4666 
L 4325 0 
L 3669 0 
L 3244 1197 
L 1141 1197 
L 716 0 
L 50 0 
L 1831 4666 
z
" transform="scale(0.015625)"/>
      <path id="DejaVuSans-6c" d="M 603 4863 
L 1178 4863 
L 1178 0 
L 603 0 
L 603 4863 
z
" transform="scale(0.015625)"/>
      <path id="DejaVuSans-63" d="M 3122 3366 
L 3122 2828 
Q 2878 2963 2633 3030 
Q 2388 3097 2138 3097 
Q 1578 3097 1268 2742 
Q 959 2388 959 1747 
Q 959 1106 1268 751 
Q 1578 397 2138 397 
Q 2388 397 2633 464 
Q 2878 531 3122 666 
L 3122 134 
Q 2881 22 2623 -34 
Q 2366 -91 2075 -91 
Q 1284 -91 818 406 
Q 353 903 353 1747 
Q 353 2603 823 3093 
Q 1294 3584 2113 3584 
Q 2378 3584 2631 3529 
Q 2884 3475 3122 3366 
z
" transform="scale(0.015625)"/>
      <path id="DejaVuSans-65" d="M 3597 1894 
L 3597 1613 
L 953 1613 
Q 991 1019 1311 708 
Q 1631 397 2203 397 
Q 2534 397 2845 478 
Q 3156 559 3463 722 
L 3463 178 
Q 3153 47 2828 -22 
Q 2503 -91 2169 -91 
Q 1331 -91 842 396 
Q 353 884 353 1716 
Q 353 2575 817 3079 
Q 1281 3584 2069 3584 
Q 2775 3584 3186 3129 
Q 3597 2675 3597 1894 
z
M 3022 2063 
Q 3016 2534 2758 2815 
Q 2500 3097 2075 3097 
Q 1594 3097 1305 2825 
Q 1016 2553 972 2059 
L 3022 2063 
z
" transform="scale(0.015625)"/>
      <path id="DejaVuSans-73" d="M 2834 3397 
L 2834 2853 
Q 2591 2978 2328 3040 
Q 2066 3103 1784 3103 
Q 1356 3103 1142 2972 
Q 928 2841 928 2578 
Q 928 2378 1081 2264 
Q 1234 2150 1697 2047 
L 1894 2003 
Q 2506 1872 2764 1633 
Q 3022 1394 3022 966 
Q 3022 478 2636 193 
Q 2250 -91 1575 -91 
Q 1294 -91 989 -36 
Q 684 19 347 128 
L 347 722 
Q 666 556 975 473 
Q 1284 391 1588 391 
Q 1994 391 2212 530 
Q 2431 669 2431 922 
Q 2431 1156 2273 1281 
Q 2116 1406 1581 1522 
L 1381 1569 
Q 847 1681 609 1914 
Q 372 2147 372 2553 
Q 372 3047 722 3315 
Q 1072 3584 1716 3584 
Q 2034 3584 2315 3537 
Q 2597 3491 2834 3397 
z
" transform="scale(0.015625)"/>
      <path id="DejaVuSans-3a" d="M 750 794 
L 1409 794 
L 1409 0 
L 750 0 
L 750 794 
z
M 750 3309 
L 1409 3309 
L 1409 2516 
L 750 2516 
L 750 3309 
z
" transform="scale(0.015625)"/>
      <path id="DejaVuSans-28" d="M 1984 4856 
Q 1566 4138 1362 3434 
Q 1159 2731 1159 2009 
Q 1159 1288 1364 580 
Q 1569 -128 1984 -844 
L 1484 -844 
Q 1016 -109 783 600 
Q 550 1309 550 2009 
Q 550 2706 781 3412 
Q 1013 4119 1484 4856 
L 1984 4856 
z
" transform="scale(0.015625)"/>
      <path id="DejaVuSans-29" d="M 513 4856 
L 1013 4856 
Q 1481 4119 1714 3412 
Q 1947 2706 1947 2009 
Q 1947 1309 1714 600 
Q 1481 -109 1013 -844 
L 513 -844 
Q 928 -128 1133 580 
Q 1338 1288 1338 2009 
Q 1338 2731 1133 3434 
Q 928 4138 513 4856 
z
" transform="scale(0.015625)"/>
      <path id="DejaVuSans-76" d="M 191 3500 
L 800 3500 
L 1894 563 
L 2988 3500 
L 3597 3500 
L 2284 0 
L 1503 0 
L 191 3500 
z
" transform="scale(0.015625)"/>
     </defs>
     <use xlink:href="#DejaVuSans-41"/>
     <use xlink:href="#DejaVuSans-6c" transform="translate(68.408203 0)"/>
     <use xlink:href="#DejaVuSans-6c" transform="translate(96.191406 0)"/>
     <use xlink:href="#DejaVuSans-20" transform="translate(123.974609 0)"/>
     <use xlink:href="#DejaVuSans-63" transform="translate(155.761719 0)"/>
     <use xlink:href="#DejaVuSans-65" transform="translate(210.742188 0)"/>
     <use xlink:href="#DejaVuSans-6c" transform="translate(272.265625 0)"/>
     <use xlink:href="#DejaVuSans-6c" transform="translate(300.048828 0)"/>
     <use xlink:href="#DejaVuSans-73" transform="translate(327.832031 0)"/>
     <use xlink:href="#DejaVuSans-3a" transform="translate(379.931641 0)"/>
     <use xlink:href="#DejaVuSans-20" transform="translate(413.623047 0)"/>
     <use xlink:href="#DejaVuSans-47" transform="translate(445.410156 0)"/>
     <use xlink:href="#DejaVuSans-53" transform="translate(522.900391 0)"/>
     <use xlink:href="#DejaVuSans-28" transform="translate(586.376953 0)"/>
     <use xlink:href="#DejaVuSans-44" transform="translate(625.390625 0)"/>
     <use xlink:href="#DejaVuSans-3d" transform="translate(702.392578 0)"/>
     <use xlink:href="#DejaVuSans-30" transform="translate(786.181641 0)"/>
     <use xlink:href="#DejaVuSans-29" transform="translate(849.804688 0)"/>
     <use xlink:href="#DejaVuSans-20" transform="translate(888.818359 0)"/>
     <use xlink:href="#DejaVuSans-76" transform="translate(920.605469 0)"/>
     <use xlink:href="#DejaVuSans-73" transform="translate(979.785156 0)"/>
     <use xlink:href="#DejaVuSans-20" transform="translate(1031.884766 0)"/>
     <use xlink:href="#DejaVuSans-47" transform="translate(1063.671875 0)"/>
     <use xlink:href="#DejaVuSans-53" transform="translate(1141.162109 0)"/>
     <use xlink:href="#DejaVuSans-28" transform="translate(1204.638672 0)"/>
     <use xlink:href="#DejaVuSans-6d" transform="translate(1243.652344 0)"/>
     <use xlink:href="#DejaVuSans-61" transform="translate(1341.064453 0)"/>
     <use xlink:href="#DejaVuSans-78" transform="translate(1402.34375 0)"/>
     <use xlink:href="#DejaVuSans-29" transform="translate(1461.523438 0)"/>
    </g>
   </g>
  </g>
 </g>
 <defs>
  <clipPath id="pe05feac025">
   <rect x="54" y="34.56" width="334.8" height="221.76"/>
  </clipPath>
 </defs>
</svg>
